<?xml version="1.0" standalone="no"?><svg xmlns="http://www.w3.org/2000/svg" viewBox="0 0 1440 320"><path fill="#964f9f" fill-opacity="1" d="M0,160L34.3,154.7C68.6,149,137,139,206,138.7C274.3,139,343,149,411,165.3C480,181,549,203,617,229.3C685.7,256,754,288,823,304C891.4,320,960,320,1029,293.3C1097.1,267,1166,213,1234,213.3C1302.9,213,1371,267,1406,293.3L1440,320L1440,320L1405.7,320C1371.4,320,1303,320,1234,320C1165.7,320,1097,320,1029,320C960,320,891,320,823,320C754.3,320,686,320,617,320C548.6,320,480,320,411,320C342.9,320,274,320,206,320C137.1,320,69,320,34,320L0,320Z"></path></svg>