<?xml version="1.0" standalone="no"?><svg xmlns="http://www.w3.org/2000/svg" viewBox="0 0 1440 320"><path fill="#964f9f" fill-opacity="1" d="M0,224L41.1,128L82.3,288L123.4,96L164.6,64L205.7,192L246.9,32L288,160L329.1,192L370.3,160L411.4,64L452.6,256L493.7,192L534.9,96L576,64L617.1,128L658.3,160L699.4,64L740.6,96L781.7,192L822.9,320L864,128L905.1,288L946.3,160L987.4,64L1028.6,192L1069.7,32L1110.9,256L1152,64L1193.1,224L1234.3,224L1275.4,288L1316.6,128L1357.7,64L1398.9,288L1440,64L1440,320L1398.9,320L1357.7,320L1316.6,320L1275.4,320L1234.3,320L1193.1,320L1152,320L1110.9,320L1069.7,320L1028.6,320L987.4,320L946.3,320L905.1,320L864,320L822.9,320L781.7,320L740.6,320L699.4,320L658.3,320L617.1,320L576,320L534.9,320L493.7,320L452.6,320L411.4,320L370.3,320L329.1,320L288,320L246.9,320L205.7,320L164.6,320L123.4,320L82.3,320L41.1,320L0,320Z"></path></svg>