<?xml version="1.0" standalone="no"?><svg xmlns="http://www.w3.org/2000/svg" viewBox="0 0 1440 320"><path fill="#964f9f" fill-opacity="1" d="M0,64L40,53.3C80,43,160,21,240,32C320,43,400,85,480,96C560,107,640,85,720,106.7C800,128,880,192,960,218.7C1040,245,1120,235,1200,218.7C1280,203,1360,181,1400,170.7L1440,160L1440,320L1400,320C1360,320,1280,320,1200,320C1120,320,1040,320,960,320C880,320,800,320,720,320C640,320,560,320,480,320C400,320,320,320,240,320C160,320,80,320,40,320L0,320Z"></path></svg>