<svg xmlns="http://www.w3.org/2000/svg" xmlns:xlink="http://www.w3.org/1999/xlink" width="1000" height="665" viewBox="0 0 1000 665">
  <defs>
    <style>
      .cls-1 {
        clip-path: url(#clip-custom_1);
      }

      .cls-2 {
        opacity: 0.83;
      }

      .cls-3 {
        fill: rgba(181,227,244,0);
      }

      .cls-10, .cls-11, .cls-12, .cls-13, .cls-14, .cls-15, .cls-16, .cls-17, .cls-18, .cls-19, .cls-20, .cls-21, .cls-22, .cls-23, .cls-24, .cls-25, .cls-26, .cls-27, .cls-28, .cls-29, .cls-3, .cls-31, .cls-32, .cls-33, .cls-34, .cls-35, .cls-36, .cls-38, .cls-39, .cls-4, .cls-40, .cls-41, .cls-42, .cls-45, .cls-46, .cls-47, .cls-48, .cls-5, .cls-50, .cls-53, .cls-54, .cls-55, .cls-56, .cls-57, .cls-58, .cls-59, .cls-6, .cls-60, .cls-61, .cls-62, .cls-63, .cls-64, .cls-65, .cls-67, .cls-68, .cls-69, .cls-7, .cls-71, .cls-74, .cls-75, .cls-76, .cls-77, .cls-78, .cls-79, .cls-8, .cls-80, .cls-81, .cls-82, .cls-83, .cls-84, .cls-85, .cls-86, .cls-9 {
        fill-rule: evenodd;
      }

      .cls-4 {
        fill: #84788f;
      }

      .cls-5 {
        fill: #7e6c82;
      }

      .cls-6 {
        fill: #725166;
      }

      .cls-7 {
        fill: #844e8f;
      }

      .cls-8 {
        fill: #7f4784;
      }

      .cls-9 {
        fill: #6c2d59;
      }

      .cls-10 {
        fill: #738067;
      }

      .cls-11 {
        fill: #6c6656;
      }

      .cls-12 {
        fill: #68594d;
      }

      .cls-13 {
        fill: #efaf9e;
      }

      .cls-14 {
        fill: #eead9a;
      }

      .cls-15 {
        fill: #1e1925;
      }

      .cls-16 {
        fill: #7b4652;
      }

      .cls-17 {
        fill: #eda08c;
      }

      .cls-18 {
        fill: #e86870;
      }

      .cls-19 {
        fill: #3d211a;
      }

      .cls-20, .cls-30 {
        fill: #faffff;
      }

      .cls-21 {
        fill: #000313;
      }

      .cls-22 {
        fill: #c7cfdf;
      }

      .cls-23 {
        fill: #ea8a0f;
      }

      .cls-24 {
        fill: #c06029;
      }

      .cls-25 {
        fill: #e2e9fa;
      }

      .cls-26 {
        fill: #efa92e;
      }

      .cls-27 {
        fill: #2c2c39;
      }

      .cls-28 {
        fill: #3f6c8f;
      }

      .cls-29 {
        fill: #5dbffc;
      }

      .cls-31 {
        fill: #e00022;
      }

      .cls-32 {
        fill: #c4aa2b;
      }

      .cls-33 {
        fill: #e6ebfe;
      }

      .cls-34 {
        fill: #c19c7c;
      }

      .cls-35 {
        fill: #d7dceb;
      }

      .cls-36 {
        fill: #303879;
      }

      .cls-37 {
        fill: #adb2c1;
      }

      .cls-38 {
        fill: #491925;
      }

      .cls-39 {
        fill: #48222f;
      }

      .cls-40 {
        fill: #54598f;
      }

      .cls-41 {
        fill: #48426d;
      }

      .cls-42 {
        fill: #6d79b7;
      }

      .cls-43 {
        fill: #faf2ff;
      }

      .cls-44 {
        fill: #bf99a8;
      }

      .cls-45, .cls-73 {
        fill: #393a48;
      }

      .cls-46 {
        fill: #292e3d;
      }

      .cls-47 {
        fill: #151a29;
      }

      .cls-48 {
        fill: #de1922;
      }

      .cls-49 {
        fill: #e4574e;
      }

      .cls-50 {
        fill: #2e3342;
      }

      .cls-51 {
        fill: #172751;
      }

      .cls-52 {
        fill: #314b8f;
      }

      .cls-53 {
        fill: #f5f8ff;
      }

      .cls-54 {
        fill: #e9d79f;
      }

      .cls-55 {
        fill: #ecd28a;
      }

      .cls-56 {
        fill: #64442f;
      }

      .cls-57 {
        fill: #925a33;
      }

      .cls-58 {
        fill: #e9eefe;
      }

      .cls-59 {
        fill: #172d68;
      }

      .cls-60 {
        fill: #00a0f7;
      }

      .cls-61 {
        fill: #ec910f;
      }

      .cls-62 {
        fill: #25b2f7;
      }

      .cls-63 {
        fill: #203c99;
      }

      .cls-64 {
        fill: #efaf9b;
      }

      .cls-65 {
        fill: #15131a;
      }

      .cls-66 {
        fill: #f7d00f;
      }

      .cls-67 {
        fill: #131113;
      }

      .cls-68 {
        fill: #7b6e2f;
      }

      .cls-69 {
        fill: #e8c830;
      }

      .cls-70 {
        fill: #292635;
      }

      .cls-71 {
        fill: #30303c;
      }

      .cls-72 {
        fill: #30303d;
      }

      .cls-74 {
        fill: #fada4a;
      }

      .cls-75 {
        fill: #9f68fa;
      }

      .cls-76 {
        fill: #002d5a;
      }

      .cls-77 {
        fill: #44437f;
      }

      .cls-78 {
        fill: #f5d9d6;
      }

      .cls-79 {
        fill: #4e4d8f;
      }

      .cls-80 {
        fill: #ec5a33;
      }

      .cls-81 {
        fill: #ad71ff;
      }

      .cls-82 {
        fill: #ae83ff;
      }

      .cls-83 {
        fill: #829cbf;
      }

      .cls-84 {
        fill: #fafdff;
      }

      .cls-85 {
        fill: #f1f9f9;
      }

      .cls-86 {
        fill: #999eae;
      }
    </style>
    <clipPath id="clip-custom_1">
      <rect width="1000" height="665"/>
    </clipPath>
  </defs>
  <g id="custom_1" data-name="custom – 1" class="cls-1">
    <g id="Group_26" data-name="Group 26" transform="translate(-24 -100)">
      <g id="Group_25" data-name="Group 25" transform="translate(23.958 100.284)">
        <g id="OBJECTS">
          <g id="Group_24" data-name="Group 24">
            <g id="Group_1" data-name="Group 1" class="cls-2" transform="translate(39.182)">
              <path id="Path_1" data-name="Path 1" class="cls-3" d="M165.087,758.027c46.938-.925,599.415,6.862,614.747-9.1,88.954,2.385,261.374-38.933,182.175-156.993-33.435-49.834,15.1-96.6-6.941-141.566-22.835-46.768-76.854-16.449-103.021-58.594-31.6-51,35.5-102-19.132-149.207-27.806-24.041-114.7,15.281-134.53-25.744-24.1-49.831-78.779-173.394-174.765-86.233-75.12,68.276-176.03-37.862-236.006,45.6-32.307,44.967-3.986,64.239-30.292,97.964-34.511,44.237-84.638,15.038-106.631,40.879-37.512,44.089,49.424,125.458-56.083,156.02C94.608,471.05-66.7,762.748,165.087,758.027Z" transform="translate(-41.671 -100.284)"/>
            </g>
            <g id="Group_5" data-name="Group 5" transform="translate(0 363.437)">
              <g id="Group_2" data-name="Group 2" transform="translate(0 89.217)">
                <path id="Path_2" data-name="Path 2" class="cls-4" d="M272.113,426.418c-12.788-85.2-160.942-137.284-248.155-117.2C57.542,405.483,185.942,473.814,272.113,426.418Z" transform="translate(-23.958 -304.913)"/>
                <path id="Path_3" data-name="Path 3" class="cls-5" d="M23.958,306.858c33.584,96.267,161.984,164.6,248.155,117.2C225.279,374.846,91.391,318.449,23.958,306.858Z" transform="translate(-23.958 -302.555)"/>
                <path id="Path_4" data-name="Path 4" class="cls-6" d="M23.958,306.858C99.584,327.01,213,374.329,270.012,425.189q1.055-.554,2.1-1.128C225.279,374.846,91.391,318.449,23.958,306.858Z" transform="translate(-23.958 -302.555)"/>
                <path id="Path_5" data-name="Path 5" class="cls-6" d="M146.46,344.3,87.04,361l57.783-17.842Z" transform="translate(52.503 -258.561)"/>
                <path id="Path_6" data-name="Path 6" class="cls-6" d="M119.341,363.45c-.164-.98-21.608-41.9-21.608-41.9L117.458,362.3Z" transform="translate(65.463 -284.751)"/>
                <path id="Path_7" data-name="Path 7" class="cls-6" d="M123.991,332.943s-55.981,18.006-55,17.352,56.6-16.451,56.6-16.451Z" transform="translate(30.611 -270.938)"/>
                <path id="Path_8" data-name="Path 8" class="cls-6" d="M96.619,345.366C97.1,344.3,71,312.057,71,312.057l23.815,33.8Z" transform="translate(33.062 -296.254)"/>
                <path id="Path_9" data-name="Path 9" class="cls-6" d="M90.814,321.159l-42.642,8.348,44.2-7.448Z" transform="translate(5.391 -285.222)"/>
                <path id="Path_10" data-name="Path 10" class="cls-6" d="M65.854,327.188c-.327-.491-19.643-20.052-19.643-20.052l17.966,19.971Z" transform="translate(3.014 -302.218)"/>
                <path id="Path_11" data-name="Path 11" class="cls-6" d="M58.976,312.285c-.9-.164-28.562,1.473-27.416,1.473s28.523-.409,28.523-.409Z" transform="translate(-14.786 -295.991)"/>
              </g>
              <g id="Group_3" data-name="Group 3" transform="translate(161.771)">
                <path id="Path_12" data-name="Path 12" class="cls-7" d="M193.874,466.322c37.532-57.771-23.508-167.507-86.351-201.741C76.568,340,117.17,448.989,193.874,466.322Z" transform="translate(-97.089 -264.581)"/>
                <path id="Path_13" data-name="Path 13" class="cls-8" d="M107.524,264.581C76.568,340,117.17,448.989,193.874,466.322,191.947,412.034,141.731,307.276,107.524,264.581Z" transform="translate(-97.089 -264.581)"/>
                <path id="Path_14" data-name="Path 14" class="cls-9" d="M101.806,264.581c34.57,52.165,77.35,140.631,84.5,201.3.615.15,1.234.3,1.854.438C186.23,412.034,136.014,307.276,101.806,264.581Z" transform="translate(-91.371 -264.581)"/>
                <path id="Path_15" data-name="Path 15" class="cls-9" d="M160.444,346.1l-44.413-21.52,44.042,19.966Z" transform="translate(-74.13 -191.854)"/>
                <path id="Path_16" data-name="Path 16" class="cls-9" d="M134.251,349.033c.422-.675,9.291-36.537,9.291-36.537l-9.811,34.851Z" transform="translate(-52.676 -206.504)"/>
                <path id="Path_17" data-name="Path 17" class="cls-9" d="M152.883,327.547s-43.051-18.911-42.116-18.783,42.594,20.167,42.594,20.167Z" transform="translate(-80.528 -211.028)"/>
                <path id="Path_18" data-name="Path 18" class="cls-9" d="M126.879,326.16c.849-.38,2.334-33.52,2.334-33.52L125.541,325.5Z" transform="translate(-62.603 -230.571)"/>
                <path id="Path_19" data-name="Path 19" class="cls-9" d="M136.657,305.857l-29.946-17.618,30.4,18.981Z" transform="translate(-85.425 -235.906)"/>
                <path id="Path_20" data-name="Path 20" class="cls-9" d="M116.1,298.965c.064-.467-1.122-22.417-1.122-22.417l.159,21.479Z" transform="translate(-75.408 -250.076)"/>
                <path id="Path_21" data-name="Path 21" class="cls-9" d="M120.317,285.914c-.453-.575-17.876-14.266-17.19-13.66s17.285,14.883,17.285,14.883Z" transform="translate(-89.794 -255.304)"/>
              </g>
              <g id="Group_4" data-name="Group 4" transform="translate(33.838 194.09)">
                <path id="Path_22" data-name="Path 22" class="cls-10" d="M257,380C211.854,327.965,89.52,356.306,39.255,407.241,103.184,457.832,219.148,448.928,257,380Z" transform="translate(-39.255 -352.322)"/>
                <path id="Path_23" data-name="Path 23" class="cls-11" d="M39.255,394.429c63.929,50.59,179.893,41.687,217.748-27.242C204.3,354.039,89.741,373.352,39.255,394.429Z" transform="translate(-39.255 -339.51)"/>
                <path id="Path_24" data-name="Path 24" class="cls-12" d="M39.255,394.429c59.688-18.809,156.529-35.477,216.814-25.58q.475-.826.934-1.661C204.3,354.039,89.741,373.352,39.255,394.429Z" transform="translate(-39.255 -339.51)"/>
                <path id="Path_25" data-name="Path 25" class="cls-12" d="M133.807,363.49l-32.955,36.738,31.359-36.81Z" transform="translate(35.405 -338.873)"/>
                <path id="Path_26" data-name="Path 26" class="cls-12" d="M127.9,374.472c-.531-.593-32.546-19.028-32.546-19.028l30.785,19.061Z" transform="translate(28.739 -348.538)"/>
                <path id="Path_27" data-name="Path 27" class="cls-12" d="M113.886,364.843s-30.073,36.15-29.693,35.287,31.155-35.362,31.155-35.362Z" transform="translate(15.209 -337.236)"/>
                <path id="Path_28" data-name="Path 28" class="cls-12" d="M104.81,372c-.131-.925-31.571-11.507-31.571-11.507L103.8,373.1Z" transform="translate(1.936 -342.414)"/>
                <path id="Path_29" data-name="Path 29" class="cls-12" d="M88.554,368.194,63.347,392.106l26.643-23.97Z" transform="translate(-10.053 -333.155)"/>
                <path id="Path_30" data-name="Path 30" class="cls-12" d="M76.249,372.915c-.431-.19-21.853-5.117-21.853-5.117l20.685,5.78Z" transform="translate(-20.903 -333.562)"/>
                <path id="Path_31" data-name="Path 31" class="cls-12" d="M64.873,372.246C64.2,372.52,46.221,385.483,47,384.992s19.079-12.5,19.079-12.5Z" transform="translate(-29.903 -328.172)"/>
              </g>
            </g>
            <g id="Group_9" data-name="Group 9" transform="translate(729.986 381.134)">
              <g id="Group_6" data-name="Group 6" transform="translate(21.903 89.217)">
                <path id="Path_32" data-name="Path 32" class="cls-4" d="M363.86,434.418c12.788-85.2,160.942-137.284,248.153-117.2C578.431,413.483,450.031,481.814,363.86,434.418Z" transform="translate(-363.86 -312.913)"/>
                <path id="Path_33" data-name="Path 33" class="cls-5" d="M612.013,314.858c-33.582,96.267-161.981,164.6-248.153,117.2C410.694,382.846,544.582,326.449,612.013,314.858Z" transform="translate(-363.86 -310.555)"/>
                <path id="Path_34" data-name="Path 34" class="cls-6" d="M612.013,314.858c-75.624,20.152-189.04,67.471-246.051,118.331q-1.055-.554-2.1-1.128C410.694,382.846,544.582,326.449,612.013,314.858Z" transform="translate(-363.86 -310.555)"/>
                <path id="Path_35" data-name="Path 35" class="cls-6" d="M386.1,352.3,445.517,369l-57.783-17.842Z" transform="translate(-336.905 -266.561)"/>
                <path id="Path_36" data-name="Path 36" class="cls-6" d="M392.5,371.45c.164-.98,21.608-41.9,21.608-41.9L394.382,370.3Z" transform="translate(-329.147 -292.751)"/>
                <path id="Path_37" data-name="Path 37" class="cls-6" d="M407.027,340.943s55.981,18.006,55,17.352-56.6-16.451-56.6-16.451Z" transform="translate(-313.474 -278.938)"/>
                <path id="Path_38" data-name="Path 38" class="cls-6" d="M417.422,353.366c-.48-1.062,25.618-33.309,25.618-33.309l-23.815,33.8Z" transform="translate(-298.947 -304.254)"/>
                <path id="Path_39" data-name="Path 39" class="cls-6" d="M433.4,329.159l42.642,8.348-44.2-7.448Z" transform="translate(-281.453 -293.222)"/>
                <path id="Path_40" data-name="Path 40" class="cls-6" d="M444.909,335.188c.327-.491,19.643-20.052,19.643-20.052l-17.966,19.971Z" transform="translate(-265.622 -310.218)"/>
                <path id="Path_41" data-name="Path 41" class="cls-6" d="M456.669,320.285c.9-.164,28.565,1.473,27.419,1.473s-28.523-.409-28.523-.409Z" transform="translate(-252.707 -303.991)"/>
              </g>
              <g id="Group_7" data-name="Group 7">
                <path id="Path_42" data-name="Path 42" class="cls-7" d="M365.46,474.322c-37.532-57.771,23.508-167.507,86.351-201.741C482.767,348,442.164,456.989,365.46,474.322Z" transform="translate(-353.958 -272.581)"/>
                <path id="Path_43" data-name="Path 43" class="cls-8" d="M445.509,272.581c30.956,75.419-9.647,184.408-86.351,201.741C361.085,420.034,411.3,315.276,445.509,272.581Z" transform="translate(-347.656 -272.581)"/>
                <path id="Path_44" data-name="Path 44" class="cls-9" d="M445.509,272.581c-34.57,52.165-77.35,140.631-84.5,201.3-.615.15-1.234.3-1.854.438C361.085,420.034,411.3,315.276,445.509,272.581Z" transform="translate(-347.656 -272.581)"/>
                <path id="Path_45" data-name="Path 45" class="cls-9" d="M363.891,354.1l44.413-21.52L364.263,352.55Z" transform="translate(-341.919 -199.854)"/>
                <path id="Path_46" data-name="Path 46" class="cls-9" d="M371.126,357.033c-.422-.675-9.293-36.537-9.293-36.537l9.813,34.851Z" transform="translate(-344.414 -214.504)"/>
                <path id="Path_47" data-name="Path 47" class="cls-9" d="M370.464,335.547s43.051-18.911,42.116-18.783-42.594,20.167-42.594,20.167Z" transform="translate(-334.532 -219.028)"/>
                <path id="Path_48" data-name="Path 48" class="cls-9" d="M375.133,334.16c-.849-.38-2.334-33.52-2.334-33.52l3.672,32.858Z" transform="translate(-331.122 -238.571)"/>
                <path id="Path_49" data-name="Path 49" class="cls-9" d="M380,313.857l29.946-17.618-30.4,18.981Z" transform="translate(-322.944 -243.906)"/>
                <path id="Path_50" data-name="Path 50" class="cls-9" d="M384.518,306.965c-.064-.467,1.122-22.417,1.122-22.417l-.159,21.479Z" transform="translate(-316.92 -258.076)"/>
                <path id="Path_51" data-name="Path 51" class="cls-9" d="M389.166,293.914c.453-.575,17.876-14.266,17.19-13.66s-17.287,14.883-17.287,14.883Z" transform="translate(-311.402 -263.304)"/>
              </g>
              <g id="Group_8" data-name="Group 8" transform="translate(18.472 194.09)">
                <path id="Path_52" data-name="Path 52" class="cls-10" d="M362.309,388c45.148-52.035,167.483-23.694,217.748,27.242C516.128,465.832,400.162,456.928,362.309,388Z" transform="translate(-362.309 -360.322)"/>
                <path id="Path_53" data-name="Path 53" class="cls-11" d="M580.057,402.429c-63.929,50.59-179.895,41.687-217.748-27.242C415.016,362.039,529.568,381.352,580.057,402.429Z" transform="translate(-362.309 -347.51)"/>
                <path id="Path_54" data-name="Path 54" class="cls-12" d="M580.057,402.429c-59.688-18.809-156.529-35.477-216.814-25.58q-.474-.826-.933-1.661C415.016,362.039,529.568,381.352,580.057,402.429Z" transform="translate(-362.309 -347.51)"/>
                <path id="Path_55" data-name="Path 55" class="cls-12" d="M384.25,371.49l32.955,36.738-31.359-36.81Z" transform="translate(-335.714 -346.873)"/>
                <path id="Path_56" data-name="Path 56" class="cls-12" d="M389.935,382.472c.531-.593,32.546-19.028,32.546-19.028L391.7,382.505Z" transform="translate(-328.824 -356.538)"/>
                <path id="Path_57" data-name="Path 57" class="cls-12" d="M403.187,372.843s30.073,36.15,29.691,35.287-31.153-35.362-31.153-35.362Z" transform="translate(-314.534 -345.236)"/>
                <path id="Path_58" data-name="Path 58" class="cls-12" d="M412.489,380c.13-.925,31.571-11.507,31.571-11.507L413.5,381.1Z" transform="translate(-301.487 -350.414)"/>
                <path id="Path_59" data-name="Path 59" class="cls-12" d="M426.044,376.194l25.207,23.911-26.643-23.97Z" transform="translate(-286.797 -341.155)"/>
                <path id="Path_60" data-name="Path 60" class="cls-12" d="M435.725,380.915c.431-.19,21.853-5.117,21.853-5.117l-20.685,5.78Z" transform="translate(-273.323 -341.562)"/>
                <path id="Path_61" data-name="Path 61" class="cls-12" d="M445.594,380.246c.677.274,18.65,13.237,17.878,12.746s-19.079-12.5-19.079-12.5Z" transform="translate(-262.817 -336.172)"/>
              </g>
            </g>
            <g id="Group_10" data-name="Group 10" transform="translate(629.777 225.798)">
              <path id="Path_62" data-name="Path 62" class="cls-13" d="M316.01,274.959s4.5,5.254,4.639,6.862-.962,5.747-1.606,4.86-.759-3.612-.759-3.612l-1.25-1.513s.869,8.092.447,9.572-1.243,1.444-1.243,1.444-.113,1.3-.956,1.506a1.15,1.15,0,0,1-1.542-.723s-.232.307-.874-.038a2.957,2.957,0,0,1-1.035-1.2s-.478.206-1.026-.451a2.823,2.823,0,0,1-.67-1.256c-.033-.144-.88-6.143-.978-6.4-1.077-2.92-.321-7.4,1.4-9.412C313.868,270.736,312.55,273.483,316.01,274.959Z" transform="translate(-308.657 -117.192)"/>
              <path id="Path_63" data-name="Path 63" class="cls-14" d="M366.53,237.981c-.363-.146-2.106,1.06-3.944-.907-1.878-1.049-2.469-3.241-1.763-4.466.65-1.133,1.92-2.117,2.376-2.986,1.055-1.88,2.429-3.19,5.324-2.084s4.3,1.575,4.351,4.7S369.087,238.052,366.53,237.981Z" transform="translate(-245.778 -172.332)"/>
              <path id="Path_64" data-name="Path 64" class="cls-15" d="M351.441,336.138a67.032,67.032,0,0,1,2.128,7.829S372,352.085,369.395,353.99c-4.05,2.962-19.055-.865-24.373-2.006l.031-8.446Z" transform="translate(-264.581 -40.209)"/>
              <path id="Path_65" data-name="Path 65" class="cls-15" d="M332.228,335.2a67.347,67.347,0,0,0-2.13,7.831s-18.431,8.116-15.823,10.023c4.05,2.96,23.123-.653,23.118-2.307l-.031-8.448Z" transform="translate(-302.155 -41.346)"/>
              <path id="Path_66" data-name="Path 66" class="cls-16" d="M368.418,270.034c7.625,41.95,11.005,103.906,15.029,154.056,0,0-6.012.148-8.516-.431-10.061-41.793-19.117-84.891-29.177-126.686-5.375,41.167-10.552,84.74-15.927,125.907-1.438.449-5.853-.635-7.424-.863s-2.254-147.647-1.964-149.382S368.418,270.034,368.418,270.034Z" transform="translate(-294.458 -120.332)"/>
              <path id="Path_67" data-name="Path 67" class="cls-17" d="M343.949,222.118c-.352,3.3-.557,13.934,5.942,16.252a20.265,20.265,0,0,1,5.156,3c-.188,10.03-23.534,12.684-33.3,3.608l3.871-4.6c8.171-1.652,4.659-15.416,4.245-22Z" transform="translate(-292.793 -182.947)"/>
              <path id="Path_68" data-name="Path 68" class="cls-18" d="M368.263,246.345c-1.051,36.931,5.4,63.969,6.886,84.3.642,10.516-55.092,17.838-55.054,9.1,1.04-29.94,1.44-61.79-1.882-89.321l.115-17.458q.746-.163,1.491-.341l10.08-3.2a19.777,19.777,0,0,0,15.646,4.813c9.629-1.2,8.627-6.82,8.627-6.82,4.393.7,8.7,1.613,13.1,2.318Z" transform="translate(-297.075 -171.991)"/>
              <path id="Path_69" data-name="Path 69" class="cls-19" d="M321.345,212.889c-.372,1.544,1.568,8.092,3.241,11.839s6.439,5.822,6.406,5.276-1.19-13.854-1.19-13.854Z" transform="translate(-293.335 -189.596)"/>
              <path id="Path_70" data-name="Path 70" class="cls-13" d="M352.962,237.762c-1.648,9.134-5.634,11.85-12.138,8.682-5.568-2.714-9.609-7.565-12.257-12.755-1.765.489-3.9-.626-5.154-2.838-1.473-2.612-1.148-5.767.728-7.045a3.06,3.06,0,0,1,1.349-.511,65.662,65.662,0,0,1,.175-8.211c.257-5.2,14.226-10.235,20.333-7.052C353.619,212,354.136,231.251,352.962,237.762Z" transform="translate(-291.891 -196.688)"/>
              <path id="Path_71" data-name="Path 71" class="cls-19" d="M332.7,220.429c-.6.613.774,10.2-.283,10.237s-4.76-4.356-4.76-4.356-.193-.263-1.349.511a3.737,3.737,0,0,0-1.447,2.115s-4.656-8.912-4.117-10.91,4.448-4.526,4.448-4.526a9.833,9.833,0,0,1,2.52-4.568c2.2-2.449,8.634-2.966,17.223-4.205,8.5-1.228,14.573,4.1,6.857,10.074C344.691,220.3,332.7,220.429,332.7,220.429Z" transform="translate(-294.059 -199.704)"/>
              <path id="Path_72" data-name="Path 72" class="cls-18" d="M329.811,229.922c-12.366,5.327-20.134,56.264-21.072,99.161l7.974-1.874a267.894,267.894,0,0,1,15.6-79.588Z" transform="translate(-308.558 -168.951)"/>
              <path id="Path_73" data-name="Path 73" class="cls-18" d="M341.762,228.462c13.191,13.775,25.01,38.683,25.01,38.683.945-1.389,16.964-28.288,19.842-36.148l5.707,5.373c-2.865,6.992-18.4,44.781-23.91,45.4-10.833,1.223-25.021-29.1-29.155-35.61Z" transform="translate(-271.569 -170.72)"/>
              <path id="Path_74" data-name="Path 74" class="cls-20" d="M376.224,213.9c.549-.122,6.855-.314,6.855-.314l3.5,10.572-4.882,4.252Z" transform="translate(-226.761 -188.752)"/>
              <path id="Path_75" data-name="Path 75" class="cls-21" d="M368.728,222.11a22.225,22.225,0,0,0,1.294,9.519c1.418,4.013,4.134,6.627,4.165,8.311.031,1.75-4.559,4.791-6.583,2.705-1.633-1.681-6.519-18.96-6.077-19.3S368.728,222.11,368.728,222.11Z" transform="translate(-244.609 -178.42)"/>
              <path id="Path_76" data-name="Path 76" class="cls-22" d="M398.259,208.134c-.161-.332-.542.1-1.67.874s-.228.155-1.155,2.064c-1.964,4.041-27.644,19.462-32.548,21.751a18.176,18.176,0,0,0-4.745,2.847l4.813,13.182c1.318-.013,1.953-.228,5.234-1.044,5.251-1.305,34.918-5.464,38.986-3.555a13.852,13.852,0,0,0,4.044.507A177.423,177.423,0,0,0,398.259,208.134Z" transform="translate(-248.679 -195.497)"/>
              <path id="Path_77" data-name="Path 77" class="cls-23" d="M377.825,208.134c-.161-.332-.542.1-1.67.874s-.228.155-1.155,2.064a205.556,205.556,0,0,1,11.74,33.181c1.92.9.832.989,2.194.878s1.933-.011,1.849-.372A177.423,177.423,0,0,0,377.825,208.134Z" transform="translate(-228.245 -195.497)"/>
              <path id="Path_78" data-name="Path 78" class="cls-23" d="M364.1,219.109c-.21.1-.4.2-.564.274-3.064,1.429-4.9,1.582-5.935,2.4l2.555,7.227,2.557,7.225c1.316-.013,2.845-1.051,6.125-1.867q.265-.066.611-.139Z" transform="translate(-249.331 -182.057)"/>
              <path id="Path_79" data-name="Path 79" class="cls-24" d="M361.591,223.969c-.091-.5-.117-.8-.064-.838a28.14,28.14,0,0,1,4.46-.847Z" transform="translate(-244.608 -178.21)"/>
              <path id="Path_80" data-name="Path 80" class="cls-25" d="M398.259,208.088c-.159-.332-2.486,2.239-2.825,2.938-1.964,4.041-27.644,19.462-32.548,21.751a18.176,18.176,0,0,0-4.745,2.847l2.444,7.532,45.091-17.3A179.98,179.98,0,0,0,398.259,208.088Z" transform="translate(-248.679 -195.451)"/>
              <path id="Path_81" data-name="Path 81" class="cls-26" d="M377.825,208.134c-.159-.332-.542.1-1.67.874s-.228.155-1.155,2.064q3.57,7.831,6.55,16.252l3.692-1.418A179.98,179.98,0,0,0,377.825,208.134Z" transform="translate(-228.245 -195.497)"/>
              <path id="Path_82" data-name="Path 82" class="cls-26" d="M364.1,219.109c-.21.1-.4.2-.564.274-3.064,1.429-4.9,1.582-5.935,2.4l2.555,7.227.365,1.026,6.554-2.515Z" transform="translate(-249.331 -182.057)"/>
              <path id="Path_83" data-name="Path 83" class="cls-27" d="M383.78,218.144l15.251-8.845-1.541-1.9Z" transform="translate(-217.603 -196.246)"/>
              <path id="Path_84" data-name="Path 84" class="cls-27" d="M381.1,219.145l11.15-15.793-1.2-.993Z" transform="translate(-220.845 -202.359)"/>
              <path id="Path_85" data-name="Path 85" class="cls-27" d="M383.028,217.591l23.842-1.373-.187,2.438Z" transform="translate(-218.514 -185.561)"/>
              <path id="Path_86" data-name="Path 86" class="cls-27" d="M383.061,219.827l19.229,7.6-.374,1.512Z" transform="translate(-218.475 -181.187)"/>
              <path id="Path_87" data-name="Path 87" class="cls-17" d="M364.244,228.045a6.775,6.775,0,0,0,3.07,7.231c.726.4,1.887.73,4.114-1.024,2.024-1.595-1.537-7.853-3.106-8.151S364.279,227.107,364.244,228.045Z" transform="translate(-241.503 -173.635)"/>
              <path id="Path_88" data-name="Path 88" class="cls-13" d="M362.766,236.445l-1.551-1.655s1.06-4.548,2.02-5.588,4.656-4.76,5.077-4.367.615,1.444-.349,3.369a5.959,5.959,0,0,1-2.845,2.672,13.257,13.257,0,0,1-.089,5.342C364.332,238.323,362.766,236.445,362.766,236.445Z" transform="translate(-244.953 -175.151)"/>
              <path id="Path_89" data-name="Path 89" class="cls-19" d="M325.789,216.767l2.141,4.623c3.115.33,13.332,1.367,15.564.281l-2-1.164a21.238,21.238,0,0,0,7.643-1.243c3.8-1.436,4.827-3.307,4.5-3.307s-3.077-.2-3.077-.2,1.783-.254,3.725-4.1,2.32-5.661,1.944-5.307-2.807,1.263-2.7.909.325-3.234.325-3.234-3.8.469-8.691.858-20.568,2.982-20.621,4.3A73.264,73.264,0,0,0,325.789,216.767Z" transform="translate(-289.399 -200.336)"/>
            </g>
            <g id="Group_11" data-name="Group 11" transform="translate(385.19 50.525)">
              <path id="Path_90" data-name="Path 90" class="cls-15" d="M246.16,255.507a66.338,66.338,0,0,0-2.108,7.758s-18.263,8.041-15.679,9.93c4.015,2.933,18.88-.858,24.147-1.989l-.029-8.368Z" transform="translate(-161.685 37.333)"/>
              <path id="Path_91" data-name="Path 91" class="cls-15" d="M264.517,254.579a66.351,66.351,0,0,1,2.108,7.756s18.261,8.043,15.677,9.932c-4.013,2.931-22.908-.648-22.9-2.287l.029-8.368Z" transform="translate(-123.777 36.208)"/>
              <path id="Path_92" data-name="Path 92" class="cls-17" d="M200.588,135.773s-1,3.776,1.241,6.309,6.477,3.23,6.477,3.23l3.57-4.046s-3.289-7.083-3.639-7.579S200.588,135.773,200.588,135.773Z" transform="translate(-195.327 -110.4)"/>
              <path id="Path_93" data-name="Path 93" class="cls-28" d="M250.213,190.017c-7.554,41.56-10.9,102.941-14.889,152.627,0,0,5.957.146,8.439-.427,9.965-41.408,18.94-84.105,28.905-125.511,5.327,40.784,10.454,83.955,15.779,124.739,1.425.445,5.8-.63,7.357-.856s2.232-146.278,1.944-148S250.213,190.017,250.213,190.017Z" transform="translate(-152.957 -42.046)"/>
              <path id="Path_94" data-name="Path 94" class="cls-17" d="M258.291,142.544c.349,3.267.553,13.806-5.884,16.1a20.021,20.021,0,0,0-5.108,2.966c.184,9.937,23.315,12.567,32.989,3.575l-3.836-4.555c-8.1-1.637-4.614-15.272-4.205-21.8Z" transform="translate(-138.442 -104.08)"/>
              <path id="Path_95" data-name="Path 95" class="cls-13" d="M304.192,146.866s.9-8.244,2.19-9.687,5.813-3.873,5.563-2.584-2.533,3.628-2.533,3.628l-.3,2.334s6.36-7.4,8-8.244,2.285-.1,2.285-.1,1.938-1.491,2.683-.894.385,1.663.237,2-.186.436-.186.436.46-.049.684.8a3.534,3.534,0,0,1-.2,1.887s.571.248.447,1.268a3.347,3.347,0,0,1-.546,1.615c-.1.148-4.645,5.813-4.8,6.112A8.429,8.429,0,0,1,315.363,149c-1.94,1.889-7.019,2.922-7.019,2.922C302.944,149.1,305.74,151.1,304.192,146.866Z" transform="translate(-69.484 -113.363)"/>
              <path id="Path_96" data-name="Path 96" class="cls-29" d="M290.054,163.883c-28.722,4.721-60.713-8.079-81.7-27.231l-4.4,4.988a83.549,83.549,0,0,0,37.588,29.591c16,8.138,37.433,9.056,49.438,8.817,1.04,36.588-5.355,63.376-6.824,83.515-.633,10.419,54.583,17.672,54.545,9.014-1.033-29.66-6.34-63.009-3.05-90.286,12.321.044,41.956.089,56.844-7.481a83.559,83.559,0,0,0,37.59-29.593l-4.4-4.986c-22.216,20.274-56.764,33.431-86.711,26.22l-9.985-3.17a19.6,19.6,0,0,1-15.5,4.769c-9.538-1.192-8.545-6.756-8.545-6.756C299.953,162.093,295.085,163.157,290.054,163.883Z" transform="translate(-190.977 -106.729)"/>
              <path id="Path_97" data-name="Path 97" class="cls-15" d="M267.869,133.4c.369,1.529-1.553,8.017-3.21,11.728s-6.38,5.769-6.344,5.225,1.177-13.724,1.177-13.724Z" transform="translate(-125.09 -110.668)"/>
              <path id="Path_98" data-name="Path 98" class="cls-13" d="M248.088,158.044c1.635,9.047,5.581,11.739,12.025,8.6,5.517-2.688,9.521-7.495,12.144-12.635,1.748.484,3.869-.619,5.106-2.814,1.46-2.588,1.137-5.712-.719-6.979a3.046,3.046,0,0,0-1.338-.507,65.31,65.31,0,0,0-.173-8.136c-.257-5.15-14.1-10.14-20.143-6.986C247.438,132.524,246.924,151.594,248.088,158.044Z" transform="translate(-138.061 -117.696)"/>
              <path id="Path_99" data-name="Path 99" class="cls-15" d="M270.161,140.871c.6.606-.768,10.1.281,10.142s4.716-4.316,4.716-4.316.19-.259,1.338.507a3.7,3.7,0,0,1,1.431,2.095s4.614-8.831,4.079-10.808-4.406-4.484-4.406-4.484a9.749,9.749,0,0,0-2.5-4.526c-2.179-2.427-8.554-2.938-17.062-4.165-8.426-1.217-14.44,4.057-6.793,9.979C258.282,140.743,270.161,140.871,270.161,140.871Z" transform="translate(-137.914 -120.683)"/>
              <rect id="Rectangle_2" data-name="Rectangle 2" class="cls-30" width="44.814" height="7.453" rx="0.539" transform="translate(0 41.749) rotate(-68.686)"/>
              <path id="Path_100" data-name="Path 100" class="cls-15" d="M272.41,139.21c-.2.3-1.69,2.683-6.61,3.876s-5.913-1.491-5.913-1.491a9.481,9.481,0,0,1-5.663-.2c-3.378-1.044-1.739-2.586-1.739-2.586s-.894,1.593-3.876-.743-.2-5.367-.2-5.367l1.787-2.732a4.3,4.3,0,0,1,1.292-3.477c1.639-1.889,5.017-1.044,5.017-1.044s1.442-1.491,4.572-1.192a7.73,7.73,0,0,1,4.869,2.334,10.662,10.662,0,0,1,5.117-.546,5.85,5.85,0,0,1,3.876,2.734s2.882.4,4.174,2.234a4.2,4.2,0,0,1,.248,3.975s2.931.447,2.831,2.783-3.159,5.466-6.424,5.119A3.8,3.8,0,0,1,272.41,139.21Z" transform="translate(-138.524 -121.801)"/>
              <path id="Path_101" data-name="Path 101" class="cls-13" d="M205.508,132.684a3.9,3.9,0,0,1,1.128,1.913c.794,2.035-1.79,6.782-3.628,7.477s-2.683.945-3.081-1.292c-.281-1.582,1.517-5.824,2.966-7.937C203.721,131.64,204.2,131.479,205.508,132.684Z" transform="translate(-195.896 -112.541)"/>
              <path id="Path_102" data-name="Path 102" class="cls-13" d="M208.814,144.739l1.759-1.88s-1.2-5.161-2.292-6.34-5.282-5.4-5.76-4.955-.7,1.639.4,3.825a6.777,6.777,0,0,0,3.23,3.031s-.69,3.674.1,6.061S208.814,144.739,208.814,144.739Z" transform="translate(-193.194 -112.936)"/>
              <path id="Path_103" data-name="Path 103" class="cls-31" d="M203.7,129.3l7.13,3.478-1.391,3.379-7.155-3.106Z" transform="translate(-193.01 -115.646)"/>
              <path id="Path_104" data-name="Path 104" class="cls-31" d="M204.906,131.288a26.4,26.4,0,0,1,3.055,4.05c1.615,2.632,1.018,8.968,1.44,8.868s1.938-.3,1.938-.3.8-4.769-.546-7.875a12.706,12.706,0,0,0-4.495-5.041Z" transform="translate(-189.826 -113.589)"/>
              <path id="Path_105" data-name="Path 105" class="cls-31" d="M204.928,132.9a10.434,10.434,0,0,0,5.838,1.119c3.749-.15,5.192-1.84,5.192-1.84l-.894-1.365a15.391,15.391,0,0,1-5.964,1.515,14.72,14.72,0,0,1-4.072-.323Z" transform="translate(-189.799 -113.807)"/>
            </g>
            <path id="Path_106" data-name="Path 106" class="cls-13" d="M404.542,330.151c.768-.325,3.4-1.272,4.068-1.6s6.811-3.139,7.7-3.21a24.386,24.386,0,0,1,5.486,1.088c1.343.418,4.484,2.055,4.827,2.183.7.263-.661,1.294-1.537,1.243a15.888,15.888,0,0,1-3.776-1.6c-.392.024-.765.04-1.117.046a4.266,4.266,0,0,1,.71.5c.445.465,1.068,1.878.821,2.075a2.042,2.042,0,0,1-1.63.471,7.36,7.36,0,0,1-2.447-1.1c-.65,2.1-5.214,4.066-7.161,4.26a7.2,7.2,0,0,1-3.462-.5Z" transform="translate(437.339 172.503)"/>
            <path id="Path_107" data-name="Path 107" class="cls-32" d="M403.188,298.1c1.867,1.009-1.343,50.053-1.343,50.053L424.172,362.3l-2.484,5.141-30.261-15.774s-.838-48.681,1.593-51.988C394.435,297.753,401.609,297.251,403.188,298.1Z" transform="translate(421.273 139.003)"/>
            <path id="Path_108" data-name="Path 108" class="cls-15" d="M398.43,281.2c-1.115,1.011-3.092,7.176-3.783,11s1.936,8,2.2,7.552,6.464-11.485,6.464-11.485Z" transform="translate(425.206 118.994)"/>
            <path id="Path_109" data-name="Path 109" class="cls-17" d="M407.907,296.088s-1.807,2.871-2.444,9.569-1.936,9.12-1.936,9.12l-11.881-8.733,10.9-18.367Z" transform="translate(421.708 126.852)"/>
            <path id="Path_110" data-name="Path 110" class="cls-33" d="M534.325,373.679H318.67c-10.213,0-18.491,11.56-18.491,25.819s8.278,25.817,18.491,25.817H534.325l-1.159-2.8a61.831,61.831,0,0,1,0-46.047Z" transform="translate(310.843 231.091)"/>
            <path id="Path_111" data-name="Path 111" class="cls-34" d="M321.385,376.954H543.993v-5.787H321.385c-12.978,0-22.722,14.657-22.722,31.376s9.744,31.374,22.722,31.374H543.993V428.13H321.385c-10.12,0-18.325-11.456-18.325-25.587S311.265,376.954,321.385,376.954Z" transform="translate(309.005 228.047)"/>
            <path id="Path_112" data-name="Path 112" class="cls-35" d="M448.1,399.5c0-14.259,8.28-25.819,18.491-25.819H318.67c-10.213,0-18.491,11.56-18.491,25.819s8.278,25.817,18.491,25.817H466.591C456.38,425.316,448.1,413.755,448.1,399.5Z" transform="translate(310.843 231.091)"/>
            <path id="Path_113" data-name="Path 113" class="cls-33" d="M302.038,345.313H517.693c10.213,0,18.491,11.56,18.491,25.817s-8.278,25.819-18.491,25.819H302.038l1.159-2.8a61.832,61.832,0,0,0,0-46.047Z" transform="translate(313.096 196.71)"/>
            <path id="Path_114" data-name="Path 114" class="cls-36" d="M521.107,348.588H298.5V342.8h222.61c12.978,0,22.723,14.657,22.723,31.374s-9.744,31.374-22.723,31.374H298.5v-5.785h222.61c10.12,0,18.325-11.456,18.325-25.589S531.227,348.588,521.107,348.588Z" transform="translate(308.804 193.665)"/>
            <path id="Path_115" data-name="Path 115" class="cls-36" d="M351.146,372.262c0-15.146-8.278-27.425-18.489-27.425H480.58c10.213,0,18.491,12.279,18.491,27.425s-8.278,27.423-18.491,27.423H332.658C342.869,399.685,351.146,387.406,351.146,372.262Z" transform="translate(350.21 196.133)"/>
            <g id="Group_12" data-name="Group 12" transform="translate(629.479 611.009)">
              <rect id="Rectangle_3" data-name="Rectangle 3" class="cls-37" width="202.517" height="2.411"/>
              <rect id="Rectangle_4" data-name="Rectangle 4" class="cls-37" width="202.517" height="2.412" transform="translate(0 9.341)"/>
              <rect id="Rectangle_5" data-name="Rectangle 5" class="cls-37" width="202.517" height="2.411" transform="translate(0 28.026)"/>
              <rect id="Rectangle_6" data-name="Rectangle 6" class="cls-37" width="202.517" height="2.41" transform="translate(0 18.684)"/>
              <rect id="Rectangle_7" data-name="Rectangle 7" class="cls-37" width="202.517" height="2.41" transform="translate(0 37.368)"/>
            </g>
            <g id="Group_13" data-name="Group 13" transform="translate(625.622 548.687)">
              <rect id="Rectangle_8" data-name="Rectangle 8" class="cls-37" width="60.034" height="2.412"/>
              <rect id="Rectangle_9" data-name="Rectangle 9" class="cls-37" width="60.034" height="2.411" transform="translate(0 9.343)"/>
              <rect id="Rectangle_10" data-name="Rectangle 10" class="cls-37" width="60.034" height="2.411" transform="translate(0 28.027)"/>
              <rect id="Rectangle_11" data-name="Rectangle 11" class="cls-37" width="60.034" height="2.411" transform="translate(0 18.685)"/>
              <rect id="Rectangle_12" data-name="Rectangle 12" class="cls-37" width="60.034" height="2.411" transform="translate(0 37.369)"/>
            </g>
            <g id="Group_17" data-name="Group 17" transform="translate(170.803 460.408)">
              <g id="Group_15" data-name="Group 15" transform="translate(83.471)">
                <g id="Group_14" data-name="Group 14">
                  <path id="Path_116" data-name="Path 116" class="cls-38" d="M217.848,349.437h-9V317.423H147.911v32.013h-9.005V312.92a4.5,4.5,0,0,1,4.5-4.5h69.939a4.5,4.5,0,0,1,4.5,4.5Z" transform="translate(-138.906 -308.418)"/>
                </g>
              </g>
              <path id="Path_117" data-name="Path 117" class="cls-39" d="M214.815,346.4V311.846a2.54,2.54,0,0,0-2.544-2.542H142.334a2.538,2.538,0,0,0-2.542,2.542V346.4h5.083V314.387h64.856V346.4Z" transform="translate(-54.362 -307.344)"/>
              <g id="Group_16" data-name="Group 16" transform="translate(4.926 28.374)">
                <path id="Path_118" data-name="Path 118" class="cls-40" d="M339.432,480.282A14.325,14.325,0,0,1,325,494.426H117.824A14.325,14.325,0,0,1,103.4,480.282V335.391a14.331,14.331,0,0,1,14.425-14.146H325a14.331,14.331,0,0,1,14.427,14.146Z" transform="translate(-103.399 -321.245)"/>
              </g>
              <path id="Path_119" data-name="Path 119" class="cls-41" d="M331.218,477.383v-4.606a.46.46,0,1,0-.92,0c0,1.484.248,4.621-.239,6.506a.46.46,0,0,0,.889.234,8.454,8.454,0,0,0,.27-2.135Zm-2.714,6.265a.461.461,0,0,0-.635-.668,8.385,8.385,0,0,1-3.787,2.07.461.461,0,0,0,.215.9,9.3,9.3,0,0,0,4.207-2.3Zm-8.9,2.559a.46.46,0,1,0,0-.92H315a.46.46,0,1,0,0,.92Zm-9.213,0a.46.46,0,1,0,0-.92h-4.608a.46.46,0,0,0,0,.92Zm-9.213,0a.46.46,0,0,0,0-.92h-4.608a.46.46,0,0,0,0,.92Zm-9.213,0a.46.46,0,0,0,0-.92h-4.608a.46.46,0,0,0,0,.92Zm-9.213,0a.46.46,0,0,0,0-.92h-4.608a.46.46,0,0,0,0,.92Zm-9.213,0a.46.46,0,0,0,0-.92h-4.608a.46.46,0,0,0,0,.92Zm-9.213,0a.46.46,0,0,0,0-.92h-4.608a.46.46,0,0,0,0,.92Zm-9.216,0a.46.46,0,1,0,0-.92H250.5a.46.46,0,1,0,0,.92Zm-9.213,0a.46.46,0,1,0,0-.92h-4.605a.46.46,0,1,0,0,.92Zm-9.213,0a.46.46,0,1,0,0-.92h-4.606a.46.46,0,1,0,0,.92Zm-9.213,0a.46.46,0,0,0,0-.92h-4.606a.46.46,0,1,0,0,.92Zm-9.213,0a.46.46,0,0,0,0-.92h-4.608a.46.46,0,0,0,0,.92Zm-9.213,0a.46.46,0,0,0,0-.92h-4.608a.46.46,0,0,0,0,.92Zm-9.213,0a.46.46,0,0,0,0-.92H195.22a.46.46,0,0,0,0,.92Zm-9.213,0a.46.46,0,0,0,0-.92h-4.608a.46.46,0,0,0,0,.92Zm-9.213,0a.46.46,0,0,0,0-.92h-4.608a.46.46,0,0,0,0,.92Zm-9.216,0a.46.46,0,1,0,0-.92H167.58a.46.46,0,0,0,0,.92Zm-9.213,0a.46.46,0,1,0,0-.92h-4.606a.46.46,0,0,0,0,.92Zm-9.213,0a.46.46,0,1,0,0-.92h-4.606a.46.46,0,1,0,0,.92Zm-9.213,0a.46.46,0,1,0,0-.92H139.94a.46.46,0,1,0,0,.92Zm-9.213,0a.46.46,0,0,0,0-.92h-4.606a.46.46,0,1,0,0,.92Zm-9.213,0a.46.46,0,0,0,0-.92h-4.608a.46.46,0,0,0,0,.92Zm-9.213,0a.46.46,0,0,0,0-.92H114.93a8.236,8.236,0,0,1-2.453-.372.46.46,0,0,0-.277.878,9.138,9.138,0,0,0,2.73.414Zm-8.762-2.962a.46.46,0,0,0,.675-.626,7.753,7.753,0,0,1-1.942-3.82.461.461,0,0,0-.907.164,8.628,8.628,0,0,0,2.174,4.283Zm-2.32-8.963a.46.46,0,0,0,.92,0v-4.608a.46.46,0,0,0-.92,0v4.608Zm0-9.213a.46.46,0,0,0,.92,0v-4.608a.46.46,0,0,0-.92,0v4.608Zm0-9.213a.46.46,0,0,0,.92,0v-4.608a.46.46,0,0,0-.92,0v4.608Zm0-9.213a.46.46,0,0,0,.92,0v-4.608a.46.46,0,0,0-.92,0v4.608Zm0-9.213a.46.46,0,0,0,.92,0v-4.608a.46.46,0,0,0-.92,0v4.608Zm0-9.213a.46.46,0,0,0,.92,0v-4.608a.46.46,0,1,0-.92,0v4.608Zm0-9.215a.46.46,0,1,0,.92,0v-4.606a.46.46,0,1,0-.92,0V419Zm0-9.213a.46.46,0,1,0,.92,0v-4.606a.46.46,0,1,0-.92,0v4.606Zm0-9.213a.46.46,0,1,0,.92,0v-4.606a.46.46,0,1,0-.92,0v4.606Zm0-9.213a.46.46,0,0,0,.92,0v-4.606a.46.46,0,1,0-.92,0v4.606Zm0-9.213a.46.46,0,0,0,.92,0v-4.608a.46.46,0,0,0-.92,0v4.608Zm0-9.213a.46.46,0,0,0,.92,0v-4.608a.46.46,0,0,0-.92,0v4.608Zm0-9.213a.46.46,0,0,0,.92,0v-4.608a.46.46,0,0,0-.92,0v4.608Zm0-9.213a.46.46,0,0,0,.92,0V349.9a.46.46,0,1,0-.92,0v4.608Zm0-9.213a.46.46,0,0,0,.92,0v-4.608a.46.46,0,1,0-.92,0v4.608Zm0-9.213a.46.46,0,0,0,.92,0,38.2,38.2,0,0,1,.06-4.546.461.461,0,0,0-.914-.117,39.7,39.7,0,0,0-.066,4.663Zm1.984-9.067a.461.461,0,0,0,.71.588,8.317,8.317,0,0,1,3.519-2.493.462.462,0,0,0-.316-.867,9.273,9.273,0,0,0-3.913,2.772Zm8.612-3.349a.461.461,0,0,0,0,.922h4.608a.461.461,0,0,0,0-.922Zm9.213,0a.461.461,0,0,0,0,.922h4.608a.461.461,0,0,0,0-.922Zm9.216,0a.461.461,0,1,0,0,.922h4.605a.461.461,0,1,0,0-.922Zm9.213,0a.461.461,0,1,0,0,.922h4.606a.461.461,0,1,0,0-.922Zm9.213,0a.461.461,0,1,0,0,.922h4.606a.461.461,0,1,0,0-.922Zm9.213,0a.461.461,0,0,0,0,.922h4.606a.461.461,0,1,0,0-.922Zm9.213,0a.461.461,0,0,0,0,.922h4.608a.461.461,0,0,0,0-.922Zm9.213,0a.461.461,0,0,0,0,.922h4.608a.461.461,0,0,0,0-.922Zm9.213,0a.461.461,0,0,0,0,.922h4.608a.461.461,0,0,0,0-.922Zm9.213,0a.461.461,0,0,0,0,.922h4.608a.461.461,0,0,0,0-.922Zm9.213,0a.461.461,0,0,0,0,.922h4.608a.461.461,0,0,0,0-.922Zm9.213,0a.461.461,0,0,0,0,.922h4.608a.461.461,0,0,0,0-.922Zm9.216,0a.461.461,0,1,0,0,.922h4.606a.461.461,0,0,0,0-.922Zm9.213,0a.466.466,0,0,0-.425.281.461.461,0,0,0,.425.642H240.8a.461.461,0,1,0,0-.922Zm9.213,0a.466.466,0,0,0-.425.281.461.461,0,0,0,.425.642h4.606a.461.461,0,1,0,0-.922Zm9.213,0a.461.461,0,1,0,0,.922h4.605a.461.461,0,1,0,0-.922Zm9.213,0a.461.461,0,0,0,0,.922h4.606a.461.461,0,1,0,0-.922Zm9.213,0a.461.461,0,0,0,0,.922h4.608a.461.461,0,0,0,0-.922Zm9.213,0a.461.461,0,0,0,0,.922h4.608a.461.461,0,0,0,0-.922Zm9.213,0a.461.461,0,0,0,0,.922h4.608a.461.461,0,0,0,0-.922Zm9.213,0a.461.461,0,0,0,0,.922H305.3a.461.461,0,0,0,0-.922Zm9.213,0a.461.461,0,0,0,0,.922h4.608a.461.461,0,0,0,0-.922Zm9.213,0a.461.461,0,0,0,0,.922,26.109,26.109,0,0,1,4.513.142.461.461,0,0,0,.173-.9,26.544,26.544,0,0,0-4.685-.159Zm9.008,2.223a.461.461,0,0,0-.6.7,7.939,7.939,0,0,1,2.4,3.561.461.461,0,0,0,.878-.281,8.864,8.864,0,0,0-2.683-3.982Zm3.095,8.687a.46.46,0,0,0-.92,0v4.608a.46.46,0,0,0,.92,0v-4.608Zm0,9.213a.46.46,0,0,0-.92,0v4.608a.46.46,0,0,0,.92,0v-4.608Zm0,9.215a.46.46,0,1,0-.92,0v4.606a.46.46,0,0,0,.92,0V353Zm0,9.213a.46.46,0,1,0-.92,0v4.606a.46.46,0,1,0,.92,0v-4.606Zm0,9.213a.46.46,0,1,0-.92,0v4.606a.46.46,0,1,0,.92,0v-4.606Zm0,9.213a.46.46,0,0,0-.92,0v4.606a.46.46,0,1,0,.92,0v-4.606Zm0,9.213a.46.46,0,0,0-.92,0v4.608a.46.46,0,0,0,.92,0v-4.608Zm0,9.213a.46.46,0,0,0-.92,0v4.608a.46.46,0,0,0,.92,0v-4.608Zm0,9.213a.46.46,0,0,0-.92,0v4.608a.46.46,0,0,0,.92,0v-4.608Zm0,9.213a.46.46,0,0,0-.92,0V422.1a.46.46,0,0,0,.92,0V417.5Zm0,9.213a.46.46,0,0,0-.92,0v4.608a.46.46,0,0,0,.92,0v-4.608Zm0,9.213a.46.46,0,0,0-.92,0v4.608a.46.46,0,0,0,.92,0v-4.608Zm0,9.215a.46.46,0,1,0-.92,0v4.606a.46.46,0,0,0,.92,0v-4.606Zm0,9.213a.46.46,0,1,0-.92,0v4.606a.46.46,0,1,0,.92,0v-4.606Zm0,9.213a.46.46,0,1,0-.92,0v4.606a.46.46,0,1,0,.92,0Z" transform="translate(-95.579 -289.972)"/>
              <path id="Path_120" data-name="Path 120" class="cls-42" d="M101.172,320.368c.706,44.879,55.463,81.117,122.943,81.117s122.235-36.238,122.941-81.117Z" transform="translate(-101.172 -293.934)"/>
              <rect id="Rectangle_13" data-name="Rectangle 13" class="cls-43" width="28.794" height="36.859" rx="1.286" transform="translate(108.545 90.941)"/>
              <rect id="Rectangle_14" data-name="Rectangle 14" class="cls-44" width="20.735" height="28.8" rx="1.62" transform="translate(112.575 94.97)"/>
            </g>
            <g id="Group_18" data-name="Group 18" transform="translate(313.159 348.168)">
              <path id="Path_121" data-name="Path 121" class="cls-45" d="M165.526,284.38l184.634-26.7L534.8,284.38V288.8L350.161,315.5,165.526,288.8Z" transform="translate(-165.526 -257.678)"/>
              <path id="Path_122" data-name="Path 122" class="cls-15" d="M165.526,286.376l184.634-26.7,184.634,26.7-184.634,26.7Z" transform="translate(-165.526 -255.259)"/>
              <path id="Path_123" data-name="Path 123" class="cls-46" d="M217.214,274.036H377.609l8.168,64.552H209.046Z" transform="translate(-112.777 -237.852)"/>
              <path id="Path_124" data-name="Path 124" class="cls-46" d="M292.931,294.206c44.171,0,80.2-5.827,80.2-12.972s-36.028-12.972-80.2-12.972-80.2,5.827-80.2,12.972S248.76,294.206,292.931,294.206Z" transform="translate(-108.307 -244.849)"/>
              <path id="Path_125" data-name="Path 125" class="cls-47" d="M297.41,323.3c48.672,0,88.366-5.827,88.366-12.972s-39.694-12.972-88.366-12.972-88.364,5.827-88.364,12.972S248.742,323.3,297.41,323.3Z" transform="translate(-112.777 -209.59)"/>
              <path id="Path_126" data-name="Path 126" class="cls-48" d="M341.943,271.12V410.7a2.769,2.769,0,0,0,2.761,2.761h0a2.768,2.768,0,0,0,2.758-2.761V268.362A2.768,2.768,0,0,0,344.7,265.6H303.778Z" transform="translate(2.046 -248.075)"/>
              <path id="Path_127" data-name="Path 127" class="cls-48" d="M328.016,316.477c9.645,0,17.639,43.981-.117,61.682C310.039,360.351,318.31,316.477,328.016,316.477Z" transform="translate(18.545 -186.41)"/>
              <path id="Rectangle_15" data-name="Rectangle 15" class="cls-49" d="M1.17,0H7.8A1.169,1.169,0,0,1,8.97,1.169V4.005A1.17,1.17,0,0,1,7.8,5.175H1.17A1.17,1.17,0,0,1,0,4.005V1.17A1.17,1.17,0,0,1,1.17,0Z" transform="translate(342.181 127.041)"/>
              <path id="Path_128" data-name="Path 128" class="cls-50" d="M373.172,280.082c-43.45,17.219-96.188,27.31-153.045,27.31q-3.885,0-7.747-.064l-3.307,26.142c1.759-6.937,40.62-12.481,88.3-12.481s86.545,5.543,88.3,12.481l-6.857-54.2-.179-1.411Q375.932,278.989,373.172,280.082Z" transform="translate(-112.743 -233.224)"/>
            </g>
            <g id="Group_19" data-name="Group 19" transform="translate(362.629 448.717)">
              <rect id="Rectangle_16" data-name="Rectangle 16" class="cls-51" width="270.223" height="193.775" transform="translate(0 19.471)"/>
              <rect id="Rectangle_17" data-name="Rectangle 17" class="cls-52" width="270.223" height="193.775" transform="translate(0 17.04)"/>
              <path id="Path_129" data-name="Path 129" class="cls-33" d="M189.429,396.733v96.473c19.146-4.645,41.629-7.32,65.679-7.32s46.531,2.674,65.677,7.32V310.451c-19.146-4.643-41.627-7.318-65.677-7.318s-46.533,2.674-65.679,7.32Z" transform="translate(-186.023 -303.133)"/>
              <path id="Path_130" data-name="Path 130" class="cls-53" d="M248.81,396.733v96.473c19.148-4.645,41.631-7.32,65.679-7.32s46.533,2.674,65.679,7.32V310.451c-19.146-4.643-41.629-7.318-65.679-7.318s-46.531,2.674-65.679,7.318Z" transform="translate(-114.049 -303.133)"/>
              <path id="Path_131" data-name="Path 131" class="cls-54" d="M189.447,397.194c19.177-4.734,41.691-7.53,65.787-7.68,23.959-.148,46.387,2.34,65.55,6.787l-.018-2.851c-19.119-4.418-41.474-6.888-65.349-6.74-24.18.15-46.768,2.966-65.988,7.729Z" transform="translate(-186.023 -201.841)"/>
              <path id="Path_132" data-name="Path 132" class="cls-54" d="M189.447,399.228c19.177-4.732,41.691-7.528,65.787-7.678,23.959-.151,46.387,2.338,65.55,6.787l-.018-2.851c-19.119-4.42-41.474-6.888-65.349-6.74-24.18.15-46.768,2.964-65.988,7.729Z" transform="translate(-186.023 -199.372)"/>
              <path id="Path_133" data-name="Path 133" class="cls-54" d="M189.447,401.265c19.177-4.734,41.691-7.53,65.787-7.678,23.959-.15,46.387,2.338,65.55,6.787l-.018-2.854c-19.119-4.418-41.474-6.886-65.349-6.738-24.18.148-46.768,2.964-65.988,7.729Z" transform="translate(-186.023 -196.903)"/>
              <path id="Path_134" data-name="Path 134" class="cls-55" d="M380.15,397.194c-19.176-4.734-41.691-7.53-65.787-7.68-23.959-.148-46.387,2.34-65.553,6.787l.02-2.851c19.119-4.418,41.474-6.888,65.349-6.74,24.18.15,46.768,2.966,65.988,7.729Z" transform="translate(-114.049 -201.841)"/>
              <path id="Path_135" data-name="Path 135" class="cls-55" d="M380.15,399.228c-19.176-4.732-41.691-7.528-65.787-7.678-23.959-.151-46.387,2.338-65.553,6.787l.02-2.851c19.119-4.42,41.474-6.888,65.349-6.74,24.18.15,46.768,2.964,65.988,7.729Z" transform="translate(-114.049 -199.372)"/>
              <path id="Path_136" data-name="Path 136" class="cls-55" d="M380.15,401.265c-19.176-4.734-41.691-7.53-65.787-7.678-23.959-.15-46.387,2.338-65.553,6.787l.02-2.854c19.119-4.418,41.474-6.886,65.349-6.738,24.18.148,46.768,2.964,65.988,7.729Z" transform="translate(-114.049 -196.903)"/>
              <path id="Path_137" data-name="Path 137" class="cls-56" d="M362.39,328.637A249.033,249.033,0,0,0,254,327.9l.015-2.354a248.982,248.982,0,0,1,108.385.816Z" transform="translate(-107.755 -282.715)"/>
              <path id="Path_138" data-name="Path 138" class="cls-56" d="M362.39,337.022A249.032,249.032,0,0,0,254,336.286l.015-2.354a249.03,249.03,0,0,1,108.385.819Z" transform="translate(-107.755 -272.549)"/>
              <path id="Path_139" data-name="Path 139" class="cls-56" d="M362.39,346.777A249.034,249.034,0,0,0,254,346.041l.015-2.354A249.072,249.072,0,0,1,362.4,344.5Z" transform="translate(-107.755 -260.725)"/>
              <path id="Path_140" data-name="Path 140" class="cls-56" d="M362.39,356.2A249.03,249.03,0,0,0,254,355.465l.015-2.354a249.072,249.072,0,0,1,108.385.816Z" transform="translate(-107.755 -249.303)"/>
              <path id="Path_141" data-name="Path 141" class="cls-56" d="M362.39,364.589A249.033,249.033,0,0,0,254,363.853l.015-2.354a248.985,248.985,0,0,1,108.385.816Z" transform="translate(-107.755 -239.138)"/>
              <path id="Path_142" data-name="Path 142" class="cls-56" d="M362.39,374.344A249.077,249.077,0,0,0,254,373.606l.015-2.354a249.028,249.028,0,0,1,108.385.818Z" transform="translate(-107.755 -227.314)"/>
              <path id="Path_143" data-name="Path 143" class="cls-57" d="M304.111,328.139A235.786,235.786,0,0,0,249.82,321.8a236.167,236.167,0,0,0-54.1,5.6l.016-2.354a236.208,236.208,0,0,1,53.93-5.561,235.625,235.625,0,0,1,54.457,6.377Z" transform="translate(-178.393 -283.316)"/>
              <path id="Path_144" data-name="Path 144" class="cls-57" d="M304.111,336.525a235.782,235.782,0,0,0-54.291-6.338,236.17,236.17,0,0,0-54.1,5.6l.016-2.351a236.2,236.2,0,0,1,53.93-5.563,235.5,235.5,0,0,1,54.457,6.38Z" transform="translate(-178.393 -273.151)"/>
              <path id="Path_145" data-name="Path 145" class="cls-57" d="M304.111,346.282a235.662,235.662,0,0,0-54.291-6.338,236.05,236.05,0,0,0-54.1,5.6l.016-2.352a236.2,236.2,0,0,1,53.93-5.563,235.5,235.5,0,0,1,54.457,6.38Z" transform="translate(-178.393 -261.328)"/>
              <path id="Path_146" data-name="Path 146" class="cls-57" d="M304.111,355.7a235.786,235.786,0,0,0-54.291-6.338,236.163,236.163,0,0,0-54.1,5.6l.016-2.354a236.328,236.328,0,0,1,53.93-5.561,235.624,235.624,0,0,1,54.457,6.378Z" transform="translate(-178.393 -249.905)"/>
              <path id="Path_147" data-name="Path 147" class="cls-57" d="M304.111,364.091a235.783,235.783,0,0,0-54.291-6.338,235.918,235.918,0,0,0-54.1,5.6l.016-2.354a236.085,236.085,0,0,1,53.93-5.561,235.625,235.625,0,0,1,54.457,6.377Z" transform="translate(-178.393 -239.739)"/>
              <path id="Path_148" data-name="Path 148" class="cls-57" d="M304.111,373.846a235.786,235.786,0,0,0-54.291-6.338,236.047,236.047,0,0,0-54.1,5.6l.016-2.354a236.081,236.081,0,0,1,53.93-5.561,235.508,235.508,0,0,1,54.457,6.377Z" transform="translate(-178.393 -227.916)"/>
            </g>
            <g id="Group_21" data-name="Group 21" transform="translate(550.695 442.592)">
              <g id="Group_20" data-name="Group 20" transform="translate(79.51)">
                <path id="Path_149" data-name="Path 149" class="cls-58" d="M320.307,300.364c-3.057,4.743-7.238,13.016-11.306,22.665-.049.12-.1.241-.15.361l6.913,2.891c.049-.122.1-.241.153-.363,4.066-9.647,7.07-18.413,8.328-23.906Z" transform="translate(-308.851 -300.364)"/>
              </g>
              <path id="Path_150" data-name="Path 150" class="cls-59" d="M316.3,304.759l5.382,2.27a5.7,5.7,0,0,1,3.243,7.337l-.108.257a5.7,5.7,0,0,1-7.519,2.8l-5.38-2.27a5.694,5.694,0,0,1-3.245-7.337l.108-.257A5.694,5.694,0,0,1,316.3,304.759Z" transform="translate(-230.045 -295.623)"/>
              <path id="Path_151" data-name="Path 151" class="cls-60" d="M326.322,305.759c-9.333,12.2-21.263,34.013-32.117,59.83q-.2.484-.4.969l13.916,5.844h0l13.9,5.889c.135-.321.274-.644.411-.964,10.914-25.793,18.214-49.564,20.435-64.759L334.4,309.15h0Z" transform="translate(-247.581 -293.825)"/>
              <path id="Path_152" data-name="Path 152" class="cls-61" d="M308.582,307.934q-1.779,2.6-3.646,5.581l11.089,4.566h0l10.425,4.435c.553-2.272,1.038-4.446,1.453-6.508l-9.331-3.968h0Z" transform="translate(-234.086 -291.189)"/>
              <path id="Path_153" data-name="Path 153" class="cls-59" d="M331.857,339.091h0l-13.921-5.847c-.254.6-.5,1.2-.763,1.812-20.386,48.484-36.046,92.286-43.286,119.514l7.866,3.3h0l7.857,3.329c14.445-24.187,34.887-65.973,55.384-114.411.257-.608.511-1.208.765-1.812Z" transform="translate(-271.72 -260.511)"/>
              <path id="Path_154" data-name="Path 154" class="cls-58" d="M281.272,399.5c1.63-3.847-.319-6.747-1.2-7.123l-.011,0-.011-.007c-.885-.372-4.322.257-5.942,4.11s-.805,9.468.071,9.837h0C275.051,406.687,279.641,403.347,281.272,399.5Z" transform="translate(-272.579 -188.957)"/>
              <path id="Path_155" data-name="Path 155" class="cls-60" d="M290.8,394.7A48.834,48.834,0,0,1,280.1,408.1q-3.58-1.516-7.167-3.022a49.089,49.089,0,0,1,2.228-16.973Q282.989,391.393,290.8,394.7Z" transform="translate(-272.907 -194.012)"/>
              <path id="Path_156" data-name="Path 156" class="cls-61" d="M313.349,310.155c10.775,4.546,12.8,4.019,12.458,12.385L310.8,316.207Z" transform="translate(-226.983 -288.497)"/>
              <path id="Path_157" data-name="Path 157" class="cls-61" d="M325.4,313.495c1.325,7.43-5.512,36.457-13.175,45.564-3.988,4.743-5.42,9.089-4.619,9.879s6.508-4.367,7.656-5.612c4.106-4.451,15.8-36.075,14.633-48.279Z" transform="translate(-231.115 -284.448)"/>
              <path id="Path_158" data-name="Path 158" class="cls-62" d="M319.034,310.569c-7.837,12.511-16.639,29.713-24.828,49.19-.135.323-.27.646-.4.971l13.918,5.842,21.8-51.685Z" transform="translate(-247.583 -287.995)"/>
              <path id="Path_159" data-name="Path 159" class="cls-63" d="M331.857,339.091l-13.918-5.844,0,0c-.254.6-.5,1.2-.763,1.812-20.386,48.484-36.046,92.286-43.286,119.514l.091.038c.44.186.88.369,1.323.555l6.453,2.71Z" transform="translate(-271.72 -260.511)"/>
              <path id="Path_160" data-name="Path 160" class="cls-62" d="M276.488,388.663l-1.323-.555a49.089,49.089,0,0,0-2.228,16.973c.21.086.42.175.628.263q1.48.621,2.958,1.243l3.862-9.156,2.553-6.052Q279.713,390.019,276.488,388.663Z" transform="translate(-272.907 -194.012)"/>
              <path id="Path_161" data-name="Path 161" class="cls-62" d="M306.856,310.816l5.951,2.446,3.44,1.414.08-.188,2.25-5.338-3.281-1.378-4.8-2.013Q308.737,308.065,306.856,310.816Z" transform="translate(-231.759 -293.825)"/>
              <path id="Path_162" data-name="Path 162" class="cls-63" d="M308.5,307.556l4.8,2.013,3.283,1.378,2.132-5.055-2.692-1.135c-.106-.046-.215-.088-.323-.126A5.675,5.675,0,0,0,308.5,307.556Z" transform="translate(-229.763 -295.622)"/>
            </g>
            <g id="Group_22" data-name="Group 22" transform="translate(600.728 410.654)">
              <path id="Path_163" data-name="Path 163" class="cls-64" d="M295.525,419.254l11.842-10.11,11.841-10.111,3.347-5.451-16.2-10.318-3.5,5.73-3.7,15.11Z" transform="translate(-295.525 -167.945)"/>
              <path id="Path_164" data-name="Path 164" class="cls-27" d="M300.253,398.8l-3.263-2.022-1.465,6.1Z" transform="translate(-295.525 -151.567)"/>
              <path id="Path_165" data-name="Path 165" class="cls-65" d="M444.935,287.344l.349.2a9.432,9.432,0,0,1,3.079,12.923L315.2,517.015l-.068-.04a3.229,3.229,0,0,0-5.382-3.307,3.233,3.233,0,0,0-5.451-3.347,3.191,3.191,0,0,0-1.248-4.05,3.226,3.226,0,0,0-4.219.648l133.18-216.494A9.332,9.332,0,0,1,444.935,287.344Z" transform="translate(-291.517 -285.926)"/>
              <rect id="Rectangle_18" data-name="Rectangle 18" class="cls-66" width="8.316" height="19.189" transform="translate(134.722 13.856) rotate(-58.452)"/>
              <path id="Path_166" data-name="Path 166" class="cls-67" d="M307.784,501.875a3.18,3.18,0,0,1,1.365,3.842l.068.04L436.607,298.563l-5.451-3.349-124,201.675-3.387,5.521A3.193,3.193,0,0,1,307.784,501.875Z" transform="translate(-285.536 -274.668)"/>
              <path id="Path_167" data-name="Path 167" class="cls-67" d="M302.854,498.848a3.253,3.253,0,0,1,1.367,3.842l.069.04,127.389-207.2-5.451-3.345-124,201.673-3.387,5.521A3.2,3.2,0,0,1,302.854,498.848Z" transform="translate(-291.509 -278.335)"/>
            </g>
            <path id="Path_168" data-name="Path 168" class="cls-45" d="M411.955,364.915l-2.387,6.756-1.015,6.574s8.559,5.145,13.613,6.749,9.213-.7,7.91-2.053-12.5-9.269-12.5-9.269Z" transform="translate(442.201 220.469)"/>
            <path id="Path_169" data-name="Path 169" class="cls-68" d="M386.58,330.074c2.765,0,33.174,1.7,33.174,1.7s38.911,2.98,44.014,8.508S450.584,416.4,450.584,416.4l-8.505-2.128,2.745-58.142c-8.955-.429-63.254,6.6-63.555-1.509C381.189,352.524,386.58,330.074,386.58,330.074Z" transform="translate(409.129 178.239)"/>
            <path id="Path_170" data-name="Path 170" class="cls-69" d="M408.81,293.942c-25.764,12.248-34.8,76.768-25.631,104.479L412.7,375.074c-6.581-30.925,9.875-51.2,6.541-66.65C417.24,299.149,410.746,294.037,408.81,293.942Z" transform="translate(407.218 134.444)"/>
            <path id="Path_171" data-name="Path 171" class="cls-13" d="M414.38,314.1c-6.167,6.271-10.737,6.271-14.14.319-2.916-5.1-3.488-11.056-2.792-16.533-1.643-.56-2.725-2.575-2.522-4.975.241-2.834,2.179-5.13,4.329-5.13a2.892,2.892,0,0,1,1.332.321,62.487,62.487,0,0,1,4.521-6.34c2.975-3.933,16.606-.42,19.69,5.333C428.646,294.278,418.778,309.632,414.38,314.1Z" transform="translate(425.655 117.662)"/>
            <path id="Path_172" data-name="Path 172" class="cls-15" d="M406.531,289.306c-.8.159-4.838,8.4-5.687,7.868s-1.4-5.953-1.4-5.953-.011-.31-1.332-.321a3.536,3.536,0,0,0-2.261.883s1.111-9.466,2.6-10.742,5.9-1.17,5.9-1.17a9.313,9.313,0,0,1,4.411-2.232c3.031-.745,8.346,2.287,15.737,5.9,7.315,3.579,9.227,10.987-.009,11.549C415.99,295.608,406.531,289.306,406.531,289.306Z" transform="translate(426.802 114.546)"/>
            <rect id="Rectangle_19" data-name="Rectangle 19" class="cls-70" width="2.126" height="40.188" transform="translate(827.462 510.165) rotate(-83.734)"/>
            <path id="Path_173" data-name="Path 173" class="cls-71" d="M435.706,318.2l-.147-3.062-6.711.875-12.52,36.66,5.024,1.382,2.582-.387Z" transform="translate(451.624 160.138)"/>
            <rect id="Rectangle_20" data-name="Rectangle 20" class="cls-72" width="2.127" height="40.189" transform="translate(833.377 510.815) rotate(-83.736)"/>
            <rect id="Rectangle_21" data-name="Rectangle 21" class="cls-73" width="40.188" height="2.127" transform="translate(873.561 513.088) rotate(-70.193)"/>
            <path id="Path_174" data-name="Path 174" class="cls-13" d="M404.835,328.3c.834-.013,3.63.089,4.371.038s7.49-.369,8.342-.1a24.268,24.268,0,0,1,4.681,3.057c1.091.889,3.393,3.579,3.665,3.827.553.507-1.1.956-1.894.58a15.97,15.97,0,0,1-2.9-2.9c-.372-.124-.726-.25-1.053-.376a4.3,4.3,0,0,1,.471.726c.239.6.29,2.143-.013,2.234a2.049,2.049,0,0,1-1.688-.173,7.358,7.358,0,0,1-1.86-1.931c-1.387,1.706-6.355,1.825-8.233,1.279a7.22,7.22,0,0,1-3.024-1.756Z" transform="translate(437.694 175.887)"/>
            <path id="Path_175" data-name="Path 175" class="cls-74" d="M394.816,343.718l41.837,25.215-3.508,4.466L383.714,350.73c-5.842-2.679,6.791-42.622,9.7-49.8a9.724,9.724,0,0,1,12.377-5.694C415.256,299.089,395.515,339.727,394.816,343.718Z" transform="translate(410.246 135.296)"/>
            <g id="Group_23" data-name="Group 23" transform="translate(208.861 356.37)">
              <path id="Path_176" data-name="Path 176" class="cls-13" d="M150.622,296.763c-.135-.06-1.363-8.094-.6-9.552s4-4.415,4.059-3.3-1.336,3.526-1.336,3.526l.239,1.991s3.712-7.444,4.891-8.483,1.867-.557,1.867-.557,1.292-1.635,2.031-1.3.666,1.294.613,1.6-.064.4-.064.4.372-.137.732.513a3.009,3.009,0,0,1,.228,1.6s.524.086.635.956a2.866,2.866,0,0,1-.115,1.447c-.051.144-2.628,5.773-2.688,6.05a7.226,7.226,0,0,1-1.2,3.446,20.563,20.563,0,0,1-4.462,4.289C150.4,298.19,150.759,296.825,150.622,296.763Z" transform="translate(-80.319 -239.98)"/>
              <path id="Path_177" data-name="Path 177" class="cls-75" d="M137.531,287.552c1.095.456,24.16,25.156,24.8,25.337s11.939-25.519,12.666-25.337,5.561,1.916,5.561,1.916-12.091,33.772-13.64,35.96S142,313.03,135.343,304.37s-6.594-15.148-4.194-16.953S137.531,287.552,137.531,287.552Z" transform="translate(-104.692 -230.768)"/>
              <path id="Path_178" data-name="Path 178" class="cls-13" d="M156.2,298.512a13.188,13.188,0,0,0,3.108.5c2.1,0,4.1-1,3.464.184-.352.655-3.079,1.883-5.76,3.055Z" transform="translate(-72.53 -216.387)"/>
              <path id="Path_179" data-name="Path 179" class="cls-76" d="M156.325,312.03s17.628-.814,21.424,14.644l23.6-28.206s-10.036-13.016-22.512-9.492Z" transform="translate(-72.38 -228.68)"/>
              <path id="Path_180" data-name="Path 180" class="cls-77" d="M145.633,316.329c-3.449,2.263-9.114,4.435-13.613,22.492s2.836,68.742,2.836,68.742-6.267,20.3-8.864,37.26-5.667,39.855-5.667,39.855l8.048,2.385,22.738-75.281c8.023-26.567,7.6-88.138,5.039-89.571Z" transform="translate(-116.015 -194.792)"/>
              <path id="Path_181" data-name="Path 181" class="cls-78" d="M132.986,392.829l-2.088,3.446-.8,3.719s3.887,5.455,7.875,5.066,4.7-2.765,4.7-2.765l-3.539-5Z" transform="translate(-104.17 -102.068)"/>
              <path id="Path_182" data-name="Path 182" class="cls-36" d="M130.89,396.178c-1.181.25-2.055,6.269-.918,7.537h7.415c3.566,0,12.058.195,14.768,0,2.75-.2,6.979-2.183,2.4-3.272a122.417,122.417,0,0,1-12.863-4.466C140.654,400.317,132.965,398.121,130.89,396.178Z" transform="translate(-104.964 -98.252)"/>
              <path id="Path_183" data-name="Path 183" class="cls-79" d="M130.506,315.328c-2.916,2.918-8.021,6.2-8.751,24.8s16.772,66.723,16.772,66.723-2,21.15-1.093,38.284,3.183,46.4,3.183,46.4l9,.188,5.683-84.057s3.283-40.472,3.648-56.514-6.017-33.362-6.017-33.362Z" transform="translate(-114.308 -196.005)"/>
              <path id="Path_184" data-name="Path 184" class="cls-15" d="M122.678,269.872c-.327,1.433,1.542,7.472,3.132,10.921s6.023,5.316,5.986,4.809-1.256-12.808-1.256-12.808Z" transform="translate(-113.209 -251.101)"/>
              <path id="Path_185" data-name="Path 185" class="cls-17" d="M135.507,278.63s1.659,1.7,3.4,9.023a22.615,22.615,0,0,0,7.4,12.3s.925,6.926-19.424-3.891l-.376-21.158Z" transform="translate(-108.52 -245.003)"/>
              <path id="Path_186" data-name="Path 186" class="cls-13" d="M152.094,292.65c-1.425,8.47-5.081,11.029-11.136,8.169-5.185-2.449-8.977-6.891-11.487-11.664-1.626.473-3.619-.535-4.8-2.57-1.394-2.4-1.128-5.322.593-6.526a2.836,2.836,0,0,1,1.245-.489,60.537,60.537,0,0,1,.069-7.6c.179-4.813,13.049-9.631,18.736-6.756C152.41,268.8,153.107,286.611,152.094,292.65Z" transform="translate(-111.831 -257.795)"/>
              <path id="Path_187" data-name="Path 187" class="cls-80" d="M133.188,276.887c-.549.573.832,9.426-.146,9.477s-4.453-3.977-4.453-3.977-.181-.241-1.245.489a3.455,3.455,0,0,0-1.314,1.973s-4.411-8.2-3.933-10.052,4.066-4.238,4.066-4.238a9.091,9.091,0,0,1,2.281-4.254c2.006-2.292,7.957-2.843,15.892-4.086,7.855-1.232,13.533,3.626,6.457,9.244C144.284,276.633,133.188,276.887,133.188,276.887Z" transform="translate(-113.911 -260.611)"/>
              <path id="Path_188" data-name="Path 188" class="cls-81" d="M138.642,283.19c5.192,1.63,4.851,7.2,12.739,7.377,0,0,8.839,12.792,11.032,17.261,3.736,7.614-3.681,12.441-4.537,17.192s-1.183,48.792.124,51.51-38.264-4.057-35.59-9.193,4.479-26.273,5.358-44.514-1.573-25.142-.56-31.9S132.329,281.21,138.642,283.19Z" transform="translate(-113.645 -235.693)"/>
              <path id="Path_189" data-name="Path 189" class="cls-80" d="M139.289,271.066c-1.168,1.38-3.212,5.873-.343,17.232s.487,19.177-5.767,26.067-1.958,29.007-3.292,24.1-12.065-12.79-8.483-24.839,5.411-18.166,3.646-21.061-5.154-11.7-2.842-16.648,4.769-5.163,4.944-5.986a10.526,10.526,0,0,1,5.041-5.344c3.081-1.5,14.062-4.771,18.205-2.314s4.634,4.995.88,8.3S139.289,271.066,139.289,271.066Z" transform="translate(-115.588 -261.386)"/>
              <path id="Path_190" data-name="Path 190" class="cls-78" d="M121.412,392.133l-1.708,3.4s2.393,6.256,6.351,6.88,5.243-1.5,5.243-1.5l-2.172-5.732Z" transform="translate(-116.767 -102.911)"/>
              <path id="Path_191" data-name="Path 191" class="cls-36" d="M121.313,393.669c-1.206-.055-3.564,5.552-2.781,7.063q3,.78,6,1.557l1.177.305c3.451.894,11.622,3.214,14.3,3.707,2.71.5,7.3-.361,3.143-2.566a121.837,121.837,0,0,1-11.33-7.55C129.726,400.126,122.833,396.069,121.313,393.669Z" transform="translate(-118.376 -101.05)"/>
              <path id="Path_192" data-name="Path 192" class="cls-82" d="M137.981,289.755s-3.75-7.9-9.941-3.906,15.721,55.273,19.6,55.317,40.107-18.96,40.107-18.96l-2.553-5.1s-34.637,13.308-35,11.3S137.981,289.755,137.981,289.755Z" transform="translate(-107.991 -233.104)"/>
              <path id="Path_193" data-name="Path 193" class="cls-76" d="M166.979,315.7s-13.806-10.2-19.444-7.694l22.871-22.247s12.476-2.991,19.084,6.886Z" transform="translate(-83.034 -232.354)"/>
              <path id="Path_194" data-name="Path 194" class="cls-83" d="M178.446,289.689s12.445-6.4,19.926,4.247l-19.926,22.01s-12.788-8.415-21.8-3.931Z" transform="translate(-71.991 -229.393)"/>
              <path id="Path_195" data-name="Path 195" class="cls-84" d="M178.446,291.444s8.994-7.4,16.042-4.387L175.5,307.629s-9.842-2.082-18.854,6.141Z" transform="translate(-71.991 -231.148)"/>
              <path id="Path_196" data-name="Path 196" class="cls-85" d="M165,315.439s-7.391-8.651-15.239-9.131l21.369-21.13s10.987-2.294,15.67,7.935Z" transform="translate(-80.341 -232.816)"/>
              <path id="Path_197" data-name="Path 197" class="cls-86" d="M155.973,290.415l0-.533h.077a12.806,12.806,0,0,1,10.459,5.7l-.456.272a12.27,12.27,0,0,0-10-5.444Z" transform="translate(-72.809 -226.847)"/>
              <path id="Path_198" data-name="Path 198" class="cls-86" d="M154.87,291.675l0-.533h.08a12.817,12.817,0,0,1,10.459,5.7l-.456.274a12.27,12.27,0,0,0-10-5.444Z" transform="translate(-74.148 -225.32)"/>
              <path id="Path_199" data-name="Path 199" class="cls-86" d="M164.179,298.1l-.458.272a12.267,12.267,0,0,0-10-5.444h-.075l0-.531A12.824,12.824,0,0,1,164.179,298.1Z" transform="translate(-75.633 -223.793)"/>
              <path id="Path_200" data-name="Path 200" class="cls-13" d="M153.28,304.556c.734-3.876,4.356-10.974,4.65-9.207a29.36,29.36,0,0,1-.022,6.426c-.086.611.422,1.263,2.929,2.128l-.281,2.522a33.535,33.535,0,0,0-5.015,2.65A31.83,31.83,0,0,1,153.28,304.556Z" transform="translate(-76.073 -220.557)"/>
            </g>
          </g>
        </g>
      </g>
    </g>
  </g>
</svg>
